<?xml version="1.0" encoding="utf-8"?>
<!-- Generator: Adobe Illustrator 14.0.0, SVG Export Plug-In . SVG Version: 6.00 Build 43363)  -->
<!DOCTYPE svg PUBLIC "-//W3C//DTD SVG 1.1//EN" "http://www.w3.org/Graphics/SVG/1.1/DTD/svg11.dtd">
<svg version="1.1" id="Layer_1" xmlns="http://www.w3.org/2000/svg" xmlns:xlink="http://www.w3.org/1999/xlink" x="0px" y="0px"
	 width="562px" height="257px" viewBox="0 0 562 257" enable-background="new 0 0 562 257" xml:space="preserve">
<polygon fill="#FFFFFF" points="413.844,21.244 424.408,120.104 434.771,21.244 447.527,21.244 458.092,120.104 468.456,21.244 
	481.212,21.244 463.872,160.764 452.312,160.764 441.149,72.468 430.188,160.764 418.428,160.764 401.088,21.244 "/>
<path fill="#FFFFFF" d="M548.976,141.646c0,4.784-1.663,8.839-4.982,12.159c-3.457,3.457-7.574,5.182-12.357,5.182h-29.1V19.466
	h29.1c4.783,0,8.9,1.728,12.357,5.182c3.319,3.323,4.982,7.443,4.982,12.357V141.646z M514.096,31.026v116.399h11.76
	c3.188,0,5.91-1.127,8.172-3.388c2.258-2.522,3.389-5.313,3.389-8.371v-92.88c0-3.056-1.131-5.846-3.389-8.372
	c-2.262-2.258-4.983-3.388-8.172-3.388H514.096z"/>
<path fill="#FFFFFF" d="M303.342,82.433c0,2.392-0.798,4.385-2.392,5.98c-0.269,0.268-0.469,0.433-0.599,0.498
	c-0.134,0.069-0.268,0.234-0.398,0.499c-1.729,1.065-3.389,1.594-4.983,1.594c1.86,0,3.52,0.533,4.983,1.594l0.997,0.997
	c1.594,1.595,2.392,3.588,2.392,5.98v43.849c0,4.783-1.664,8.838-4.982,12.158c-3.457,3.457-7.574,5.182-12.358,5.182h-29.1V21.244
	h29.1c4.784,0,8.901,1.728,12.358,5.182c3.318,3.323,4.982,7.443,4.982,12.357V82.433z M268.462,32.804v52.42h11.759
	c3.189,0,5.911-1.128,8.172-3.388c2.257-2.523,3.388-5.248,3.388-8.172v-29.1c0-3.055-1.131-5.846-3.388-8.371
	c-2.261-2.258-4.983-3.389-8.172-3.389H268.462z M280.221,96.784h-11.759v52.42h11.759c3.189,0,5.911-1.128,8.172-3.389
	c2.257-2.522,3.388-5.312,3.388-8.371v-28.9c0-3.055-1.131-5.846-3.388-8.372C286.132,97.914,283.41,96.784,280.221,96.784"/>
<polygon fill="#FFFFFF" points="343.741,21.244 354.903,66.09 365.865,21.244 378.023,21.244 360.882,91.003 378.023,160.764 
	365.865,160.764 354.903,115.917 343.741,160.764 331.583,160.764 348.725,91.003 331.583,21.244 "/>
<polygon fill="#FFFFFF" points="111.065,21.244 128.007,124.887 128.007,21.244 139.567,21.244 139.567,160.764 121.629,160.764 
	104.687,56.921 104.687,160.764 93.127,160.764 93.127,21.244 "/>
<polygon fill="#FFFFFF" points="212.206,32.211 177.325,32.211 177.325,84.631 212.206,84.631 212.206,96.191 177.325,96.191 
	177.325,148.611 212.206,148.611 212.206,160.171 165.765,160.171 165.765,20.651 212.206,20.651 "/>
<path fill="#FFFFFF" d="M57.388,25.834c-3.457-3.454-7.574-5.182-12.358-5.182H33.271c-4.653,0-8.705,1.728-12.158,5.182
	c-3.457,3.457-5.183,7.574-5.183,12.357v104.64c0,4.653,1.726,8.705,5.183,12.158c3.453,3.457,7.505,5.183,12.158,5.183H45.03
	c4.784,0,8.901-1.726,12.358-5.183c3.319-3.319,4.983-7.374,4.983-12.158V38.191C62.371,33.277,60.707,29.157,57.388,25.834
	 M30.879,35.6c2.523-2.258,5.313-3.388,8.371-3.388c3.189,0,5.911,1.13,8.172,3.388c0.719,0.804,1.31,1.637,1.8,2.495
	l-21.731,66.142V43.971C27.491,40.916,28.618,38.126,30.879,35.6 M47.422,145.223c-2.261,2.261-4.983,3.388-8.172,3.388
	c-3.058,0-5.848-1.127-8.371-3.388c-2.261-2.523-3.388-5.313-3.388-8.371V125.12L50.81,54.143v82.709
	C50.81,139.91,49.68,142.7,47.422,145.223"/>
<rect x="230.069" y="179.119" fill="#FFFFFF" width="32.122" height="65"/>
<rect x="267.282" y="179.119" fill="#FFFFFF" width="64.466" height="65"/>
</svg>
